<svg xmlns="http://www.w3.org/2000/svg" width="16px" height="16px" fill="none" viewBox="0 0 32 32"><path fill="#fff" fill-opacity=".01" d="M0 0h32v32H0z" style="mix-blend-mode:multiply"/><path fill="#161616" d="M28 4H4a2 2 0 0 0-2 2v20a2 2 0 0 0 2 2h24a2 2 0 0 0 2-2V6a2 2 0 0 0-2-2Zm0 22H4V6h24v20Z"/><path fill="#161616" d="M21 20h-8a3.51 3.51 0 0 0-.88-1.86l3.8-6.64-1.74-1-3.78 6.62A3.5 3.5 0 1 0 12.65 22H21v-2ZM9.5 22a1.5 1.5 0 1 1 0-3 1.5 1.5 0 0 1 0 3ZM26 8h-7v2h7V8Zm-3 4h-4v2h4v-2Z"/></svg>