<svg xmlns="http://www.w3.org/2000/svg" width="16px" height="16px" fill="none" viewBox="0 0 32 32"><path fill="#fff" fill-opacity=".01" d="M0 0h32v32H0z" style="mix-blend-mode:multiply"/><path fill="#161616" d="M20 20v2h5.22a11.017 11.017 0 0 1-11.97 4.653l-.499 1.937A13 13 0 0 0 26 24.293V28h2v-8h-8Zm5-17a4.004 4.004 0 0 0-4 4c.004.712.2 1.41.567 2.019L9.019 21.567A3.952 3.952 0 0 0 7 21a4 4 0 1 0 4 4 3.954 3.954 0 0 0-.567-2.019l12.548-12.548c.61.367 1.307.563 2.019.567a4 4 0 1 0 0-8ZM7 27a2 2 0 1 1 0-4 2 2 0 0 1 0 4ZM25 9a2 2 0 1 1 0-4 2 2 0 0 1 0 4Zm-9-6A13.04 13.04 0 0 0 6 7.707V4H4v8h8v-2H6.78a11.016 11.016 0 0 1 11.97-4.653l.499-1.937A13.036 13.036 0 0 0 16 3Z"/></svg>