<svg viewBox="0 0 32 32" fill="none" xmlns="http://www.w3.org/2000/svg" width="16px" height="16px">
    <rect width="32" height="32" fill="white" fill-opacity="0.01" style="mix-blend-mode:multiply"/>
    <path d="M29.0002 27.5859L21.4481 20.0338C23.2629 17.8552 24.1678 15.0608 23.9747 12.2319C23.7815 9.40306 22.5053 6.75757 20.4113 4.84576C18.3173 2.93396 15.5669 1.90303 12.7322 1.96745C9.89755 2.03186 7.19681 3.18666 5.19186 5.19161C3.1869 7.19656 2.03211 9.8973 1.96769 12.732C1.90327 15.5667 2.9342 18.3171 4.84601 20.4111C6.75782 22.505 9.40331 23.7813 12.2322 23.9744C15.061 24.1675 17.8554 23.2626 20.034 21.4479L27.5861 29L29.0002 27.5859ZM4.00024 13C4.00024 11.22 4.52808 9.4799 5.51701 7.99986C6.50594 6.51982 7.91155 5.36627 9.55609 4.68508C11.2006 4.00389 13.0102 3.82566 14.756 4.17292C16.5019 4.52019 18.1055 5.37736 19.3642 6.63603C20.6229 7.8947 21.48 9.49835 21.8273 11.2442C22.1746 12.99 21.9963 14.7996 21.3152 16.4441C20.634 18.0887 19.4804 19.4943 18.0004 20.4832C16.5203 21.4722 14.7803 22 13.0002 22C10.6141 21.9973 8.32645 21.0483 6.6392 19.361C4.95194 17.6738 4.00288 15.3861 4.00024 13Z" fill="#161616"/>
    </svg>
    